<?xml version="1.0" encoding="UTF-8" standalone="no"?>
<svg width="304px" height="49px" viewBox="0 0 304 49" version="1.1" xmlns="http://www.w3.org/2000/svg" xmlns:xlink="http://www.w3.org/1999/xlink" xmlns:sketch="http://www.bohemiancoding.com/sketch/ns">
    <!-- Generator: Sketch 3.4 (15588) - http://www.bohemiancoding.com/sketch -->
    <title>logo</title>
    <desc>Created with Sketch.</desc>
    <defs></defs>
    <g id="Page-1" stroke="none" stroke-width="1" fill="none" fill-rule="evenodd" sketch:type="MSPage">
        <g id="Desktop" sketch:type="MSArtboardGroup" transform="translate(-42.000000, -23.000000)" fill="#3F1875">
            <g id="header" sketch:type="MSLayerGroup">
                <g id="logo" transform="translate(42.000000, 23.800000)" sketch:type="MSShapeGroup">
                    <g id="text" transform="translate(56.625000, 12.375000)">
                        <path d="M10.704,5.47725 C9.854625,3.99975 8.834625,3.152625 7.0215,3.152625 C5.12325,3.152625 3.482625,4.510875 3.482625,6.4665 C3.482625,8.307375 5.378625,9.155625 6.822,9.80475 L8.23875,10.4295 C11.01525,11.64825 13.3665,13.034625 13.3665,16.43175 C13.3665,20.169 10.363125,23.034 6.654375,23.034 C3.22725,23.034 0.679125,20.825625 0,17.507625 L2.321625,16.8615 C2.63325,19.041 4.30275,20.825625 6.598125,20.825625 C8.893125,20.825625 10.986375,19.0665 10.986375,16.657125 C10.986375,14.168625 9.0345,13.318125 7.050375,12.414375 L5.746125,11.84625 C3.253875,10.712625 1.10475,9.442125 1.10475,6.37875 C1.10475,3.068625 3.906,0.94125 7.07775,0.94125 C9.457875,0.94125 11.4705,2.158875 12.604875,4.25775 L10.704,5.47725" id="Fill-8"></path>
                        <path d="M29.875875,1.3125 L40.947,1.3125 L40.947,3.520875 L32.256,3.520875 L32.256,9.868125 L40.69425,9.868125 L40.69425,12.075375 L32.256,12.075375 L32.256,20.454 L40.947,20.454 L40.947,22.663875 L29.875875,22.663875 L29.875875,1.3125" id="Fill-9"></path>
                        <path d="M60.40125,20.454 L62.781375,20.454 C65.441625,20.454 68.24775,19.806 68.24775,16.545 C68.24775,13.23375 65.074125,12.751875 62.4675,12.751875 L60.40125,12.751875 L60.40125,20.454 L60.40125,20.454 Z M60.40125,10.712625 L61.309125,10.712625 C64.0005,10.712625 66.29325,10.401 66.29325,7.0875 C66.29325,3.860625 64.254,3.520875 61.33575,3.520875 L60.40125,3.520875 L60.40125,10.712625 L60.40125,10.712625 Z M58.023,1.3125 L61.532625,1.3125 C65.414625,1.3125 68.671125,2.727 68.671125,7.0875 C68.671125,8.81775 68.019375,10.28925 66.575625,11.254125 C69.12375,11.871375 70.623375,14.168625 70.623375,16.714875 C70.623375,20.96775 67.198875,22.663875 62.978625,22.663875 L58.023,22.663875 L58.023,1.3125 L58.023,1.3125 Z" id="Fill-10"></path>
                        <path d="M129.640125,5.47725 C128.790375,3.99975 127.77075,3.152625 125.95725,3.152625 C124.06125,3.152625 122.418375,4.510875 122.418375,6.4665 C122.418375,8.307375 124.317,9.155625 125.76,9.80475 L127.17675,10.4295 C129.94875,11.64825 132.30225,13.034625 132.30225,16.43175 C132.30225,20.169 129.298875,23.034 125.589375,23.034 C122.16525,23.034 119.617125,20.825625 118.93575,17.507625 L121.255125,16.8615 C121.569,19.041 123.24075,20.825625 125.5335,20.825625 C127.82625,20.825625 129.924375,19.0665 129.924375,16.657125 C129.924375,14.168625 127.969875,13.318125 125.9865,12.414375 L124.6845,11.84625 C122.191875,10.712625 120.03825,9.442125 120.03825,6.37875 C120.03825,3.068625 122.844,0.94125 126.01575,0.94125 C128.393625,0.94125 130.404,2.158875 131.535375,4.25775 L129.640125,5.47725" id="Fill-11"></path>
                        <path d="M154.474875,22.663875 L152.094375,22.663875 L152.094375,3.520875 L146.94225,3.520875 L146.94225,1.3125 L159.685875,1.3125 L159.685875,3.520875 L154.474875,3.520875 L154.474875,22.663875" id="Fill-12"></path>
                        <path d="M175.203375,1.3125 L177.581625,1.3125 L177.581625,22.663875 L175.203375,22.663875 L175.203375,1.3125 Z" id="Fill-13"></path>
                        <path d="M227.9025,0.405 L244.55475,17.849625 L244.55475,1.3125 L246.93525,1.3125 L246.93525,23.625 L230.28225,6.21375 L230.28225,22.663875 L227.9025,22.663875 L227.9025,0.405" id="Fill-15"></path>
                        <path d="M95.00775,0.291 L85.150875,22.663875 L87.757875,22.663875 L90.33525,16.602375 L90.342375,16.602375 L91.85625,13.088625 L94.949625,5.842125 L97.877625,12.857625 L99.447375,16.602375 L99.4545,16.602375 L99.9855,17.881125 L100.0485,18.029625 L101.97375,22.663875 L104.607375,22.663875 L95.00775,0.291" id="Fill-17"></path>
                        <path d="M202.813875,0.291 L192.95925,22.663875 L195.5655,22.663875 L198.140625,16.602375 L198.15,16.602375 L199.459875,13.569 L202.758375,5.842125 L205.6875,12.86925 L207.25275,16.602375 L207.26025,16.602375 L208.0635,18.533625 L208.0635,18.535875 L209.781375,22.663875 L212.415375,22.663875 L202.813875,0.291" id="Fill-18"></path>
                    </g>
                    <g id="icon">
                        <path d="M27.0748235,2.44101548 C27.0748235,2.44101548 27.399678,6.31831579 27.5271827,8.6379195 L32.6621424,12.8219443 C33.5882601,12.3340681 34.1002105,12.2318266 34.1002105,12.2318266 C34.1002105,12.2318266 34.3614613,9.79393189 32.9311207,7.90603096 C31.4979567,6.01649536 27.0748235,2.44101548 27.0748235,2.44101548" id="Fill-4"></path>
                        <path d="M9.12252632,2.44101548 C9.12252632,2.44101548 8.79737461,6.31831579 8.67001858,8.6379195 L3.53505882,12.8219443 C2.60908978,12.3340681 2.09699071,12.2318266 2.09699071,12.2318266 C2.09699071,12.2318266 1.83559133,9.79393189 3.26593189,7.90603096 C4.69924458,6.01649536 9.12252632,2.44101548 9.12252632,2.44101548" id="Fill-5"></path>
                        <path d="M16.2143406,45.9680991 C16.2143406,45.9680991 21.9608173,38.3873684 24.9818452,29.1762724 C28.0034675,19.9662167 27.5607678,10.7580929 27.5607678,10.7580929 L36.179517,17.8503529 C36.179517,17.8503529 33.7028359,25.7969536 29.2207059,32.5480124 C25.0472322,38.836161 17.3070464,47.890774 17.3070464,47.890774 L16.2143406,45.9680991" id="Fill-6"></path>
                        <path d="M17.0506997,41.6293746 C15.2518142,38.7477399 12.999678,34.6179567 11.2152074,29.1762724 C8.19358514,19.9662167 8.63628483,10.7580929 8.63628483,10.7580929 L0.0173869969,17.8503529 C0.0173869969,17.8503529 2.49436533,25.7969536 6.97634675,32.5480124 C9.50920124,36.363195 13.1097957,40.795096 15.5499195,43.6914427 L17.0506997,41.6293746" id="Fill-7"></path>
                        <path d="M16.4082724,5.11950464 C16.4082724,4.72985759 16.4981796,4.36517647 16.6536223,4.04923839 C16.4283344,4.03036533 16.1584644,3.98102786 15.8246935,3.88487926 C15.0262291,3.65528173 11.467096,-0.0521609907 11.1605201,0.105065015 C10.8527554,0.259318885 11.9898947,2.31514551 12.2658576,2.68220433 C12.5425635,3.05253251 12.1740186,3.14511455 11.7130402,3.57443963 C11.2529536,4.00406192 10.9453375,7.69233437 11.467096,8.42972136 C11.9898947,9.16651393 15.3387492,7.47685449 16.3821176,6.80262539 C16.5770898,6.6763096 16.7447183,6.60750464 16.8964458,6.57495975 C16.594031,6.19021672 16.4082724,5.68079257 16.4082724,5.11950464" id="Fill-20"></path>
                        <path d="M24.2631827,2.68220433 C24.5410774,2.31514551 25.6780681,0.259318885 25.3706006,0.105065015 C25.0628359,-0.0521609907 21.4392074,3.4952322 20.70613,3.88487926 C20.4211022,4.03734985 20.1689164,4.10347988 19.9403591,4.11744892 C20.0757399,4.41718885 20.1534613,4.75764706 20.1534613,5.11950464 C20.1534613,5.65151703 19.9873189,6.13790712 19.7123963,6.51477399 C19.7973994,6.52056966 19.8434675,6.60586997 20.1466254,6.80262539 C21.1913313,7.47685449 24.5388483,9.16651393 25.0628359,8.42972136 C25.5844458,7.69233437 25.2769783,4.00406192 24.816743,3.57443963 C24.3569536,3.14511455 23.9872198,3.05253251 24.2631827,2.68220433" id="Fill-21"></path>
                        <path d="M19.2708854,16.7151455 C19.2708854,17.0700186 18.9845201,17.3557895 18.6294985,17.3557895 C18.2746254,17.3557895 17.9900433,17.0700186 17.9900433,16.7151455 C17.9900433,16.3627988 18.2746254,16.0762848 18.6294985,16.0762848 C18.9845201,16.0762848 19.2708854,16.3627988 19.2708854,16.7151455" id="Fill-1"></path>
                        <path d="M19.2708854,24.384 C19.2708854,24.7384272 18.9845201,25.0249412 18.6294985,25.0249412 C18.2746254,25.0249412 17.9900433,24.7384272 17.9900433,24.384 C17.9900433,24.0304644 18.2746254,23.7430588 18.6294985,23.7430588 C18.9845201,23.7430588 19.2708854,24.0304644 19.2708854,24.384" id="Fill-2"></path>
                        <path d="M19.2708854,32.3542291 C19.2708854,32.7089536 18.9845201,32.9956161 18.6294985,32.9956161 C18.2746254,32.9956161 17.9900433,32.7089536 17.9900433,32.3542291 C17.9900433,32.0006935 18.2746254,31.7138824 18.6294985,31.7138824 C18.9845201,31.7138824 19.2708854,32.0006935 19.2708854,32.3542291" id="Fill-3"></path>
                    </g>
                </g>
            </g>
        </g>
    </g>
</svg>