<?xml version="1.0" encoding="UTF-8" standalone="no"?>
<svg width="1024px" height="333px" viewBox="0 0 1024 333" version="1.1" xmlns="http://www.w3.org/2000/svg" xmlns:xlink="http://www.w3.org/1999/xlink" xmlns:sketch="http://www.bohemiancoding.com/sketch/ns">
    <!-- Generator: Sketch 3.4 (15588) - http://www.bohemiancoding.com/sketch -->
    <title>chart</title>
    <desc>Created with Sketch.</desc>
    <defs>
        <rect id="path-1" x="0" y="0" width="1024" height="616"></rect>
        <linearGradient x1="50%" y1="14.1137866%" x2="50%" y2="70.1159621%" id="linearGradient-3">
            <stop stop-color="#FFC37E" stop-opacity="0.48" offset="0%"></stop>
            <stop stop-color="#F7A072" stop-opacity="0" offset="100%"></stop>
        </linearGradient>
    </defs>
    <g id="Page-1" stroke="none" stroke-width="1" fill="none" fill-rule="evenodd" sketch:type="MSPage">
        <g id="Desktop" sketch:type="MSArtboardGroup" transform="translate(0.000000, -248.000000)">
            <g id="chart" sketch:type="MSLayerGroup">
                <g id="path">
                    <mask id="mask-2" sketch:name="mask" fill="white">
                        <use xlink:href="#path-1"></use>
                    </mask>
                    <use id="mask" sketch:type="MSShapeGroup" xlink:href="#path-1"></use>
                    <path d="M0.778322983,568.834461 C0.778322983,568.834461 38.4511675,489.148935 84.4331292,489.148931 C130.415091,489.148927 165.620879,543.061135 228.52113,543.061143 C291.42138,543.061151 326.839953,423.766001 373.533195,423.766005 C420.226436,423.766008 452.77958,466.341297 517.006153,466.341288 C581.232725,466.34128 614.17269,339.544959 662.105223,339.544958 C710.037757,339.544957 744.156597,396.983946 807.600322,396.983945 C871.044046,396.983944 908.015878,256.805153 953.932478,256.805156 C999.849078,256.805159 1003.71047,315.08482 1033.98103,315.084813 C1064.25159,315.084806 1033.98103,718.617573 1033.98103,718.617573 L1.03106693,718.617573 L-121.999997,627.000011 L0.778322983,568.834461 Z" stroke="#FFC37E" stroke-width="4" fill="url(#linearGradient-3)" sketch:type="MSShapeGroup" mask="url(#mask-2)"></path>
                </g>
                <g id="points" transform="translate(74.672956, 249.245283)" stroke="#FFFFFF" stroke-width="2" fill="#FFC37E" sketch:type="MSShapeGroup">
                    <circle id="point" cx="877.433962" cy="8.04402516" r="8"></circle>
                    <circle id="point" cx="732.528302" cy="148.295597" r="8"></circle>
                    <circle id="point" cx="587.622642" cy="90.3333333" r="8"></circle>
                    <circle id="point" cx="442.716981" cy="216.006289" r="8"></circle>
                    <circle id="point" cx="297.811321" cy="175" r="8"></circle>
                    <circle id="point" cx="152.90566" cy="293.377358" r="8"></circle>
                    <circle id="point" cx="8" cy="240.333333" r="8"></circle>
                </g>
            </g>
        </g>
    </g>
</svg>